{"asset":{"version":"2.0","generator":"Babylon2Gltf2017","copyright":"2017 (c) BabylonJS"},"scene":0,"scenes":[{"nodes":[0,1,2,3,4,5,6,7,8,9,10,11,12,13,14]}],"nodes":[{"mesh":0,"translation":[1.7060521E-20,-1.04467756E-36,1.49147828E-27],"rotation":[7.549791E-08,7.549791E-08,-1.0,5.699934E-15],"scale":[2.54,2.54,2.54],"name":"stitch_result_stitch_all_15"},{"mesh":1,"translation":[1.7060521E-20,-1.04467756E-36,1.49147828E-27],"rotation":[7.549791E-08,7.549791E-08,-1.0,5.699934E-15],"scale":[2.54,2.54,2.54],"name":"stitch_result_stitch_all_14"},{"mesh":2,"translation":[1.7060521E-20,-1.04467756E-36,1.49147828E-27],"rotation":[7.549791E-08,7.549791E-08,-1.0,5.699934E-15],"scale":[2.54,2.54,2.54],"name":"stitch_result_stitch_all_13"},{"mesh":3,"translation":[1.7060521E-20,-1.04467756E-36,1.49147828E-27],"rotation":[7.549791E-08,7.549791E-08,-1.0,5.699934E-15],"scale":[2.54,2.54,2.54],"name":"stitch_result_stitch_all_12"},{"mesh":4,"translation":[1.7060521E-20,-1.04467756E-36,1.49147828E-27],"rotation":[7.549791E-08,7.549791E-08,-1.0,5.699934E-15],"scale":[2.54,2.54,2.54],"name":"stitch_result_stitch_all_11"},{"mesh":5,"translation":[1.7060521E-20,-1.04467756E-36,1.49147828E-27],"rotation":[7.549791E-08,7.549791E-08,-1.0,5.699934E-15],"scale":[2.54,2.54,2.54],"name":"stitch_result_stitch_all_10"},{"mesh":6,"translation":[1.7060521E-20,-1.04467756E-36,1.49147828E-27],"rotation":[7.549791E-08,7.549791E-08,-1.0,5.699934E-15],"scale":[2.54,2.54,2.54],"name":"stitch_result_stitch_all_9"},{"mesh":7,"translation":[1.7060521E-20,-1.04467756E-36,1.49147828E-27],"rotation":[7.549791E-08,7.549791E-08,-1.0,5.699934E-15],"scale":[2.54,2.54,2.54],"name":"stitch_result_stitch_all_8"},{"mesh":8,"translation":[1.7060521E-20,-1.04467756E-36,1.49147828E-27],"rotation":[7.549791E-08,7.549791E-08,-1.0,5.699934E-15],"scale":[2.54,2.54,2.54],"name":"stitch_result_stitch_all_7"},{"mesh":9,"translation":[1.7060521E-20,-1.04467756E-36,1.49147828E-27],"rotation":[7.549791E-08,7.549791E-08,-1.0,5.699934E-15],"scale":[2.54,2.54,2.54],"name":"stitch_result_stitch_all_6"},{"mesh":10,"translation":[1.7060521E-20,-1.04467756E-36,1.49147828E-27],"rotation":[7.549791E-08,7.549791E-08,-1.0,5.699934E-15],"scale":[2.54,2.54,2.54],"name":"stitch_result_stitch_all_5"},{"mesh":11,"translation":[1.7060521E-20,-1.04467756E-36,1.49147828E-27],"rotation":[7.549791E-08,7.549791E-08,-1.0,5.699934E-15],"scale":[2.54,2.54,2.54],"name":"stitch_result_stitch_all_4"},{"mesh":12,"translation":[1.7060521E-20,-1.04467756E-36,1.49147828E-27],"rotation":[7.549791E-08,7.549791E-08,-1.0,5.699934E-15],"scale":[2.54,2.54,2.54],"name":"stitch_result_stitch_all_3"},{"mesh":13,"translation":[1.7060521E-20,-1.04467756E-36,1.49147828E-27],"rotation":[7.549791E-08,7.549791E-08,-1.0,5.699934E-15],"scale":[2.54,2.54,2.54],"name":"stitch_result_stitch_all_2"},{"mesh":14,"translation":[1.7060521E-20,-1.04467756E-36,1.49147828E-27],"rotation":[7.549791E-08,7.549791E-08,-1.0,5.699934E-15],"scale":[2.54,2.54,2.54],"name":"stitch_result_stitch_all"}],"meshes":[{"primitives":[{"attributes":{"POSITION":1,"NORMAL":2},"indices":0}],"name":"stitch_result_stitch_all_15"},{"primitives":[{"attributes":{"POSITION":4,"NORMAL":5},"indices":3}],"name":"stitch_result_stitch_all_14"},{"primitives":[{"attributes":{"POSITION":7,"NORMAL":8},"indices":6}],"name":"stitch_result_stitch_all_13"},{"primitives":[{"attributes":{"POSITION":10,"NORMAL":11},"indices":9}],"name":"stitch_result_stitch_all_12"},{"primitives":[{"attributes":{"POSITION":13,"NORMAL":14,"TEXCOORD_0":15,"TEXCOORD_1":16},"indices":12,"mode":4,"material":0}],"name":"stitch_result_stitch_all_11"},{"primitives":[{"attributes":{"POSITION":18,"NORMAL":19},"indices":17,"mode":4,"material":1}],"name":"stitch_result_stitch_all_10"},{"primitives":[{"attributes":{"POSITION":21,"NORMAL":22},"indices":20}],"name":"stitch_result_stitch_all_9"},{"primitives":[{"attributes":{"POSITION":24,"NORMAL":25},"indices":23,"mode":4,"material":1}],"name":"stitch_result_stitch_all_8"},{"primitives":[{"attributes":{"POSITION":27,"NORMAL":28},"indices":26,"mode":4,"material":1}],"name":"stitch_result_stitch_all_7"},{"primitives":[{"attributes":{"POSITION":30,"NORMAL":31},"indices":29,"mode":4,"material":1}],"name":"stitch_result_stitch_all_6"},{"primitives":[{"attributes":{"POSITION":33,"NORMAL":34,"TEXCOORD_0":35},"indices":32,"mode":4,"material":0}],"name":"stitch_result_stitch_all_5"},{"primitives":[{"attributes":{"POSITION":37,"NORMAL":38},"indices":36,"mode":4,"material":1}],"name":"stitch_result_stitch_all_4"},{"primitives":[{"attributes":{"POSITION":40,"NORMAL":41},"indices":39,"mode":4,"material":1}],"name":"stitch_result_stitch_all_3"},{"primitives":[{"attributes":{"POSITION":43,"NORMAL":44},"indices":42,"mode":4,"material":1}],"name":"stitch_result_stitch_all_2"},{"primitives":[{"attributes":{"POSITION":46,"NORMAL":47},"indices":45,"mode":4,"material":1}],"name":"stitch_result_stitch_all"}],"accessors":[{"bufferView":0,"componentType":5123,"count":522,"type":"SCALAR","name":"accessorIndices"},{"bufferView":1,"componentType":5126,"count":522,"max":[0.787401557,-11.661418,-1.15280306],"min":[0.472440958,-12.0550919,-1.51648831],"type":"VEC3","name":"accessorPositions"},{"bufferView":1,"byteOffset":6264,"componentType":5126,"count":522,"type":"VEC3","name":"accessorNormals"},{"bufferView":0,"byteOffset":1044,"componentType":5123,"count":522,"type":"SCALAR","name":"accessorIndices"},{"bufferView":1,"byteOffset":12528,"componentType":5126,"count":522,"max":[-0.393700778,-11.661418,-0.5228818],"min":[-0.7086615,-12.0550919,-0.886567],"type":"VEC3","name":"accessorPositions"},{"bufferView":1,"byteOffset":18792,"componentType":5126,"count":522,"type":"VEC3","name":"accessorNormals"},{"bufferView":0,"byteOffset":2088,"componentType":5123,"count":26274,"type":"SCALAR","name":"accessorIndices"},{"bufferView":1,"byteOffset":25056,"componentType":5126,"count":26274,"max":[0.944838047,-11.4448814,-0.389763772],"min":[-0.866097867,-11.7598438,-1.64960659],"type":"VEC3","name":"accessorPositions"},{"bufferView":1,"byteOffset":340344,"componentType":5126,"count":26274,"type":"VEC3","name":"accessorNormals"},{"bufferView":0,"byteOffset":54636,"componentType":5123,"count":6666,"type":"SCALAR","name":"accessorIndices"},{"bufferView":1,"byteOffset":655632,"componentType":5126,"count":6666,"max":[0.866108835,-11.0905514,-0.468503922],"min":[-0.7873687,-15.8080235,-1.57086611],"type":"VEC3","name":"accessorPositions"},{"bufferView":1,"byteOffset":735624,"componentType":5126,"count":6666,"type":"VEC3","name":"accessorNormals"},{"bufferView":0,"byteOffset":67968,"componentType":5123,"count":522,"type":"SCALAR","name":"accessorIndices"},{"bufferView":1,"byteOffset":815616,"componentType":5126,"count":522,"max":[1.22047246,-11.129921,2.440945],"min":[0.433070868,-12.901576,-2.440945],"type":"VEC3","name":"accessorPositions"},{"bufferView":1,"byteOffset":821880,"componentType":5126,"count":522,"type":"VEC3","name":"accessorNormals"},{"bufferView":2,"componentType":5126,"count":522,"type":"VEC2","name":"accessorUVs"},{"bufferView":2,"byteOffset":4176,"componentType":5126,"count":522,"type":"VEC2","name":"accessorUV2s"},{"bufferView":0,"byteOffset":69012,"componentType":5123,"count":1056,"type":"SCALAR","name":"accessorIndices"},{"bufferView":1,"byteOffset":828144,"componentType":5126,"count":1056,"max":[1.92775977,-11.1889772,0.196738109],"min":[1.5361346,-11.5719166,-0.1964013],"type":"VEC3","name":"accessorPositions"},{"bufferView":1,"byteOffset":840816,"componentType":5126,"count":1056,"type":"VEC3","name":"accessorNormals"},{"bufferView":0,"byteOffset":71124,"componentType":5123,"count":12324,"type":"SCALAR","name":"accessorIndices"},{"bufferView":1,"byteOffset":853488,"componentType":5126,"count":12324,"max":[2.65717983,-9.122047,2.1062994],"min":[-1.5548178,-11.4251938,-2.10629916],"type":"VEC3","name":"accessorPositions"},{"bufferView":1,"byteOffset":1001376,"componentType":5126,"count":12324,"type":"VEC3","name":"accessorNormals"},{"bufferView":0,"byteOffset":95772,"componentType":5123,"count":1050,"type":"SCALAR","name":"accessorIndices"},{"bufferView":1,"byteOffset":1149264,"componentType":5126,"count":1050,"max":[2.07159781,-0.08950173,-3.05085731],"min":[1.67885113,-0.944882,-3.443997],"type":"VEC3","name":"accessorPositions"},{"bufferView":1,"byteOffset":1161864,"componentType":5126,"count":1050,"type":"VEC3","name":"accessorNormals"},{"bufferView":0,"byteOffset":97872,"componentType":5123,"count":1050,"type":"SCALAR","name":"accessorIndices"},{"bufferView":1,"byteOffset":1174464,"componentType":5126,"count":1050,"max":[2.071598,-0.08950173,3.44399667],"min":[1.67817783,-0.944882,3.050857],"type":"VEC3","name":"accessorPositions"},{"bufferView":1,"byteOffset":1187064,"componentType":5126,"count":1050,"type":"VEC3","name":"accessorNormals"},{"bufferView":0,"byteOffset":99972,"componentType":5123,"count":1050,"type":"SCALAR","name":"accessorIndices"},{"bufferView":1,"byteOffset":1199664,"componentType":5126,"count":1050,"max":[-3.55385137,-0.08950173,0.196738109],"min":[-3.946149,-0.944882,-0.196738109],"type":"VEC3","name":"accessorPositions"},{"bufferView":1,"byteOffset":1212264,"componentType":5126,"count":1050,"type":"VEC3","name":"accessorNormals"},{"bufferView":0,"byteOffset":102072,"componentType":5125,"count":203034,"type":"SCALAR","name":"accessorIndices"},{"bufferView":1,"byteOffset":1224864,"componentType":5126,"count":203034,"max":[4.14311,2.842171E-14,4.1437006],"min":[-4.143687,-12.4291334,-4.143701],"type":"VEC3","name":"accessorPositions"},{"bufferView":1,"byteOffset":3661272,"componentType":5126,"count":203034,"type":"VEC3","name":"accessorNormals"},{"bufferView":2,"byteOffset":8352,"componentType":5126,"count":203034,"type":"VEC2","name":"accessorUVs"},{"bufferView":0,"byteOffset":914208,"componentType":5123,"count":444,"type":"SCALAR","name":"accessorIndices"},{"bufferView":1,"byteOffset":6097680,"componentType":5126,"count":444,"max":[-3.6968503,-0.2992126,0.05314203],"min":[-3.8031497,-0.944882,-0.0531420261],"type":"VEC3","name":"accessorPositions"},{"bufferView":1,"byteOffset":6103008,"componentType":5126,"count":444,"type":"VEC3","name":"accessorNormals"},{"bufferView":0,"byteOffset":915096,"componentType":5123,"count":558,"type":"SCALAR","name":"accessorIndices"},{"bufferView":1,"byteOffset":6108336,"componentType":5126,"count":558,"max":[1.92811942,-0.2992126,3.30073738],"min":[1.82188082,-0.944882,3.194453],"type":"VEC3","name":"accessorPositions"},{"bufferView":1,"byteOffset":6115032,"componentType":5126,"count":558,"type":"VEC3","name":"accessorNormals"},{"bufferView":0,"byteOffset":916212,"componentType":5123,"count":558,"type":"SCALAR","name":"accessorIndices"},{"bufferView":1,"byteOffset":6121728,"componentType":5126,"count":558,"max":[1.92811918,-0.2992126,-3.19445324],"min":[1.8218807,-0.944882,-3.30073762],"type":"VEC3","name":"accessorPositions"},{"bufferView":1,"byteOffset":6128424,"componentType":5126,"count":558,"type":"VEC3","name":"accessorNormals"},{"bufferView":0,"byteOffset":917328,"componentType":5123,"count":558,"type":"SCALAR","name":"accessorIndices"},{"bufferView":1,"byteOffset":6135120,"componentType":5126,"count":558,"max":[1.78540289,-11.1889772,0.0531420261],"min":[1.67916429,-11.3622046,-0.05314203],"type":"VEC3","name":"accessorPositions"},{"bufferView":1,"byteOffset":6141816,"componentType":5126,"count":558,"type":"VEC3","name":"accessorNormals"}],"bufferViews":[{"buffer":0,"byteLength":918444,"name":"bufferViewScalar"},{"buffer":0,"byteOffset":918444,"byteLength":6148512,"byteStride":12,"name":"bufferViewFloatVec3"},{"buffer":0,"byteOffset":7066956,"byteLength":1632624,"byteStride":8,"name":"bufferViewFloatVec2"}],"buffers":[{"uri":"test.bin","byteLength":8699580}],"materials":[{"pbrMetallicRoughness":{"baseColorFactor":[0.179609329,0.179609329,0.192076743,1.0],"metallicFactor":0.0708847,"roughnessFactor":0.25000006},"emissiveFactor":[0.0,0.0,0.0],"alphaMode":"OPAQUE","name":"Material #25"},{"pbrMetallicRoughness":{"baseColorFactor":[0.874183059,0.874183059,0.886438,1.0],"metallicFactor":0.0,"roughnessFactor":0.99},"emissiveFactor":[0.0,0.0,0.0],"alphaMode":"OPAQUE","name":"Material #26"}]}